<svg width="250" height="64" viewBox="0 0 250 64" fill="none" xmlns="http://www.w3.org/2000/svg">
  <rect x="6" y="6" width="52" height="52" rx="17" fill="#0F172A"/>
  <path d="M20 41L30.4 24H38L27.6 41H20ZM29.8 43H38.1L42.6 35.8H34.2L29.8 43Z" fill="white"/>
  <rect x="39" y="22" width="5" height="5" rx="1.8" fill="#38BDF8"/>
  <path d="M81.34 41V23.78H84.96V41H81.34ZM92.0458 41.252C90.6111 41.252 89.3745 41.0143 88.3358 40.539C87.2971 40.0554 86.4876 39.3835 85.9072 38.5232L88.3918 36.4037C88.8294 37.0109 89.3698 37.49 90.0129 37.8418C90.6637 38.1852 91.3727 38.3579 92.1399 38.3579C92.9317 38.3579 93.5538 38.2134 94.0064 37.9246C94.467 37.6358 94.6973 37.2184 94.6973 36.672C94.6973 36.1802 94.5659 35.8014 94.3022 35.5359C94.0467 35.2627 93.7027 35.0444 93.2703 34.8801C92.8459 34.7084 92.3749 34.5528 91.8575 34.4131C91.3482 34.2735 90.8348 34.1131 90.3174 33.9327C89.8082 33.7443 89.3411 33.4985 88.9168 33.1959C88.4925 32.8856 88.1485 32.4798 87.8848 31.9781C87.6292 31.4676 87.5015 30.8108 87.5015 30.0075C87.5015 29.0413 87.7435 28.219 88.2275 27.5401C88.7115 26.8524 89.3823 26.3277 90.2409 25.9659C91.0995 25.5958 92.0829 25.4108 93.1911 25.4108C94.3733 25.4108 95.439 25.6156 96.3884 26.0252C97.3459 26.4268 98.1252 27.0001 98.7263 27.7445L96.2468 29.8862C95.7993 29.3588 95.3219 28.9683 94.8149 28.7144C94.3151 28.4521 93.7418 28.321 93.0958 28.321C92.3811 28.321 91.8243 28.4408 91.4256 28.6803C91.0268 28.9199 90.8274 29.2796 90.8274 29.7596C90.8274 30.2167 90.9551 30.5764 91.2106 30.8388C91.4744 31.0932 91.8184 31.3047 92.2427 31.4734C92.675 31.6338 93.1421 31.7895 93.6441 31.9403C94.1542 32.083 94.6634 32.2506 95.1717 32.4421C95.6809 32.6346 96.1471 32.889 96.5705 33.2057C96.9948 33.5234 97.3353 33.9442 97.5927 34.4689C97.8574 34.9945 97.9898 35.6633 97.9898 36.4748C97.9898 37.9777 97.4552 39.1608 96.3884 40.023C95.3309 40.8771 93.8835 41.3041 92.0458 41.3041V41.252ZM100.783 41V29.955H103.993V31.709H103.64C104.002 31.0819 104.493 30.5937 105.113 30.2457C105.733 29.8976 106.454 29.7236 107.278 29.7236H107.884V32.6221H106.985C106.083 32.6221 105.383 32.8657 104.886 33.3539C104.394 33.8421 104.148 34.5607 104.148 35.5087V41H100.783ZM114.478 41.252C113.355 41.252 112.335 41.0062 111.419 40.5144C110.502 40.0227 109.773 39.3438 109.23 38.4786C108.695 37.6053 108.428 36.6067 108.428 35.4831C108.428 34.3596 108.691 33.3648 109.219 32.4986C109.754 31.6244 110.48 30.9455 111.396 30.4629C112.313 29.9712 113.344 29.7253 114.49 29.7253C115.643 29.7253 116.669 29.9712 117.566 30.4629C118.468 30.9455 119.174 31.6204 119.683 32.4877C120.191 33.3551 120.446 34.3578 120.446 35.4955C120.446 35.6949 120.435 35.9063 120.411 36.1295L120.377 36.8432H111.573V34.5247H118.317L117.087 35.4917C117.08 34.8502 116.969 34.3019 116.755 33.8461C116.541 33.3902 116.236 33.0345 115.838 32.7789C115.448 32.5234 114.983 32.3957 114.444 32.3957C113.873 32.3957 113.374 32.5274 112.949 32.7907C112.525 33.054 112.195 33.4241 111.96 33.8993C111.726 34.3664 111.608 34.9187 111.608 35.5543C111.608 36.1988 111.739 36.7662 112.001 37.2561C112.271 37.7386 112.645 38.1128 113.124 38.3783C113.605 38.6416 114.16 38.7733 114.788 38.7733C115.365 38.7733 115.889 38.6782 116.36 38.4888C116.833 38.2903 117.244 37.9986 117.59 37.6127L119.428 39.4589C118.928 40.0295 118.311 40.4702 117.578 40.7805C116.846 41.0918 115.812 41.2465 114.478 41.2465V41.252ZM125.651 41V32.5496H122.841V29.955H125.651V29.3716C125.651 27.8963 126.062 26.7274 126.886 25.8652C127.718 24.999 128.845 24.5663 130.267 24.5663C130.698 24.5663 131.109 24.6144 131.5 24.7106C131.903 24.8068 132.253 24.9509 132.549 25.1434L131.579 27.7159C131.43 27.6385 131.264 27.5809 131.08 27.5423C130.901 27.4957 130.71 27.4725 130.507 27.4725C129.968 27.4725 129.56 27.6358 129.285 27.9623C129.02 28.2898 128.887 28.7487 128.887 29.3397V29.955H132.8V32.5496H128.887V41H125.651ZM139.426 41.252C138.303 41.252 137.283 41.0062 136.367 40.5144C135.45 40.0227 134.721 39.3438 134.178 38.4786C133.643 37.6053 133.376 36.6067 133.376 35.4831C133.376 34.3596 133.639 33.3648 134.167 32.4986C134.702 31.6244 135.428 30.9455 136.344 30.4629C137.261 29.9712 138.292 29.7253 139.438 29.7253C140.591 29.7253 141.617 29.9712 142.514 30.4629C143.416 30.9455 144.122 31.6204 144.631 32.4877C145.139 33.3551 145.394 34.3578 145.394 35.4955C145.394 35.6949 145.383 35.9063 145.359 36.1295L145.325 36.8432H136.521V34.5247H143.265L142.035 35.4917C142.028 34.8502 141.917 34.3019 141.703 33.8461C141.489 33.3902 141.184 33.0345 140.786 32.7789C140.396 32.5234 139.931 32.3957 139.392 32.3957C138.821 32.3957 138.322 32.5274 137.897 32.7907C137.473 33.054 137.143 33.4241 136.908 33.8993C136.674 34.3664 136.556 34.9187 136.556 35.5543C136.556 36.1988 136.687 36.7662 136.949 37.2561C137.219 37.7386 137.593 38.1128 138.072 38.3783C138.553 38.6416 139.108 38.7733 139.736 38.7733C140.313 38.7733 140.837 38.6782 141.308 38.4888C141.781 38.2903 142.192 37.9986 142.538 37.6127L144.376 39.4589C143.876 40.0295 143.259 40.4702 142.526 40.7805C141.794 41.0918 140.76 41.2465 139.426 41.2465V41.252ZM150.749 41.1945C149.503 41.1945 148.515 40.8398 147.786 40.1302C147.058 39.4205 146.693 38.4524 146.693 37.2268V32.5496H144.471V29.955H144.618C145.231 29.955 145.712 29.7894 146.063 29.4581C146.414 29.1267 146.59 28.6631 146.59 28.0672V27.1926H149.911V29.955H152.812V32.5496H149.911V37.0475C149.911 37.4353 149.977 37.7627 150.11 38.0325C150.25 38.2903 150.447 38.4878 150.701 38.6244C150.964 38.7541 151.273 38.8189 151.627 38.8189C151.802 38.8189 151.982 38.8034 152.165 38.7723C152.356 38.7375 152.531 38.6873 152.689 38.6244V41.0203C152.459 41.0947 152.188 41.1513 151.876 41.1926C151.568 41.2438 151.267 41.2697 150.974 41.2697L150.749 41.1945ZM157.906 45.35L161.01 38.3822L161.056 40.8271L155.948 29.955H159.636L162.981 37.5074H161.464L164.786 29.955H168.417L161.841 45.35H157.906Z" fill="#0F172A"/>
</svg>
